# xmcd CD database file
#
# Track frame offsets:
#	150
#	7579
#	31398
#	51717
#	72956
#	92491
#	117731
#	139137
#	157829
#	177897
#	197446
#	212708
#
# Disc length: 3134 seconds
#
# Revision: 9
# Processed by: cddbd v1.5.1PL2 Copyright (c) Steve Scherf et al.
# Submitted via: CDex 1.51
#
DISCID=9f0c3c0c
DTITLE=浜崎あゆみ - Duty
DYEAR=2000
DGENRE=JPop
TTITLE0=starting over
TTITLE1=Duty
TTITLE2=vogue
TTITLE3=End of the World
TTITLE4=SCAR
TTITLE5=Far away
TTITLE6=SURREAL
TTITLE7=AUDIENCE
TTITLE8=SEASONS
TTITLE9=teddy bear
TTITLE10=key〜eternal tie ver.〜
TTITLE11=girlish
EXTD=YEAR: 2000
EXTT0=
EXTT1=
EXTT2=
EXTT3=
EXTT4=
EXTT5=
EXTT6=
EXTT7=
EXTT8=
EXTT9=
EXTT10=
EXTT11=
PLAYORDER=
